<svg id="Layer_1" data-name="Layer 1" xmlns="http://www.w3.org/2000/svg" viewBox="0 0 1920 471.08"><defs><style>.cls-1{fill:#b61f7e;}.cls-2{fill:#3a2161;}</style></defs><path class="cls-1" d="M109.15,471.08q-17.24,0-29.44-20.83-6.46-10-6.46-17.23,0-10,15.08-20.83A24.52,24.52,0,0,0,98,398.91q2.51-8.25,2.51-22.62V339q0-26.56,9.34-46.32T138.59,247q20.1-28,30.52-49.19t10.42-50.63q0-33-15.44-50.27t-42-17.23a84.17,84.17,0,0,0-35.19,7.18v2.87q30.17,1.45,47,18.67t16.87,43.09q0,30.16-20.82,50.27T76.12,221.9q-33.77,0-54.94-21.55T0,142.9q0-31.59,15.8-57.09T60.32,45.6Q89,30.89,125.67,30.88q54.57,0,86.89,31.24t32.32,83.65q0,31.62-10.42,56t-29.8,54.57q-16.53,25.15-24.77,42.73a89.26,89.26,0,0,0-8.26,38.42v40.93q0,17.24-9.34,29.44H301.61V203.94q0-21.54-4.67-30.16t-18.31-12.21q-8.62-2.85-12.93-9a23.66,23.66,0,0,1-4.31-14q0-7.89,5-16.51Q310.21,43.81,383.47,0L424.4,49.55A305.83,305.83,0,0,0,369.11,89.4q-25.86,23.35-40.22,45.6Q354,142.92,363,158.7t9,47.4V412.91q0,23-14,37t-37.7,14H145.06q-13.65,0-23.7,4.31A24.42,24.42,0,0,1,109.15,471.08Zm-10.77-298a28.1,28.1,0,0,0,9.34-21.54,29.25,29.25,0,0,0-9.34-21.9,31,31,0,0,0-22.26-9q-13.65,0-22.62,9a29.78,29.78,0,0,0-9,21.9q0,13.65,9,21.9t22.62,8.26A31.68,31.68,0,0,0,98.38,173.06Z"/><path class="cls-1" d="M463.72,449.54q-21.92-21.56-21.9-59.61,0-45.24,25.13-74.68a113.82,113.82,0,0,1,62.48-38.06V171.63q-12.93,4.31-22.26,4.31-28.74,0-48.48-19.75t-19.75-50.63q0-32.31,21.91-53.5t59.24-21.18q36.63,0,58.89,20.82T601.24,107V277.19a302.42,302.42,0,0,1,80.78,23q39.13,17.24,66.43,43.8V38.06h70.37V463.9H748.45V419.37q-25.86-37.32-63.91-58.88a246,246,0,0,0-83.3-28.72V395q0,35.19-20.47,55.65T523,471.08Q485.63,471.08,463.72,449.54ZM541.63,127.1q8.63-8.61,8.62-21.54a29.81,29.81,0,0,0-9-21.9,29,29,0,0,0-21.19-9q-13.65,0-22.62,9a29.78,29.78,0,0,0-9,21.9q0,13.65,9,21.9t22.62,8.26Q533,135.72,541.63,127.1Zm5,272.17V324.58q-26.58,4.32-39.85,21.19t-13.29,44.88q0,17.24,7.54,26.57t21.9,9.33Q546.66,426.55,546.66,399.27Z"/><path class="cls-1" d="M907.09,262.9h27.73v63h72.12v-63h27.74V421.33h-27.74V349.88H934.82v71.45H907.09Z"/><path class="cls-1" d="M1211.3,342.11c0,45.49-28.63,83-75.89,83s-75.89-37.5-75.89-83c0-45,28.63-83,75.89-83S1211.3,297.07,1211.3,342.11ZM1072.84,216.3,1093,248h-18.41l-31.51-31.73Zm14.42,125.81c0,30.4,14.2,60.36,48.15,60.36s48.15-30,48.15-60.36-14.2-60.35-48.15-60.35S1087.26,311.71,1087.26,342.11ZM1119.65,248h-20.41L1123,216.3h24.63l24,31.73h-20.64l-15.75-20Z"/><path class="cls-1" d="M1235.48,262.9h29.29l72.34,116.71h.44V262.9H1364V421.33h-29.29l-72.12-116.5h-.67v116.5h-26.4Z"/><path class="cls-1" d="M1535,421.33h-17.75l-4.22-18.64c-14.87,16.86-28.4,22.41-47.71,22.41-47.26,0-75.89-37.5-75.89-83,0-45,28.63-83,75.89-83,34.4,0,63.69,18.42,67.9,54.15h-27.07c-2.88-20.64-20.63-31.51-40.83-31.51-33.95,0-48.15,29.95-48.15,60.35s14.2,60.36,48.15,60.36c28.63.66,43.72-16.64,44.38-43.49h-42.16V337.9H1535Z"/><path class="cls-1" d="M1626.22,262.9H1654v63h72.12v-63h27.74V421.33h-27.74V349.88H1654v71.45h-27.73Z"/><path class="cls-1" d="M1829.47,262.9H1859l61,158.43h-29.73l-14.87-41.94h-63.24l-14.87,41.94h-28.62Zm8.43-47,20.19,31.74h-18.42l-31.51-31.74Zm-18.2,142.46h48.38l-23.75-68.12h-.66Z"/><path class="cls-2" d="M928.91,103.94l.43,9.13H901.72c-.21-.51-.45-1.14-.7-1.9a7.53,7.53,0,0,1-.38-2.45,5.38,5.38,0,0,1,1-3.59,3.72,3.72,0,0,1,3-1.19Zm-7.61,6.19h10.87v59.7q-.66.22-2.07.54a12.84,12.84,0,0,1-2.93.33,6.81,6.81,0,0,1-4.46-1.2,4.85,4.85,0,0,1-1.41-3.91Zm3.48,2.94-.44-9.13h27.51a7.78,7.78,0,0,1,.82,1.79,8.15,8.15,0,0,1,.38,2.56,5.24,5.24,0,0,1-1.09,3.47,3.63,3.63,0,0,1-2.94,1.31Z"/><path class="cls-2" d="M975.77,139.82h-11V104.15c.51-.14,1.23-.32,2.17-.54a12.93,12.93,0,0,1,2.94-.33,7,7,0,0,1,4.4,1.15,4.59,4.59,0,0,1,1.47,3.86Zm-11-10.88h11v40.89c-.51.15-1.21.33-2.12.54a12.62,12.62,0,0,1-3,.33,6.83,6.83,0,0,1-4.46-1.2,4.85,4.85,0,0,1-1.41-3.91ZM1013,141.12h-42.3v-8.91H1013Zm5-1.3h-10.87V104.15c.43-.14,1.12-.32,2.06-.54a12.86,12.86,0,0,1,2.94-.33,7,7,0,0,1,4.46,1.15q1.41,1.14,1.41,4Zm-10.87-10.88H1018v40.89c-.51.15-1.21.33-2.12.54a12.22,12.22,0,0,1-2.88.33,6.81,6.81,0,0,1-4.46-1.2,4.85,4.85,0,0,1-1.41-3.91Z"/><path class="cls-2" d="M1060,112.63h-.44q-1.51,4.25-3.53,10t-4.13,11.9q-2.12,6.15-4.08,11.69l-.87,3.7q-.65,2.07-1.52,4.78c-.58,1.82-1.2,3.7-1.85,5.66s-1.27,3.8-1.85,5.54l-1.41,4.25a8.81,8.81,0,0,1-1.85.65,12.18,12.18,0,0,1-2.5.22,6.82,6.82,0,0,1-4-1.15,3.89,3.89,0,0,1-1.63-3.42,8,8,0,0,1,.32-2.23c.22-.76.47-1.61.76-2.56q1.2-3.58,3.1-9t4.13-11.69q2.24-6.3,4.68-12.83t4.67-12.56q2.24-6,4.08-10.6a12.65,12.65,0,0,1,3.26-1.19,18,18,0,0,1,4.35-.55,15.64,15.64,0,0,1,5.28.87,4.66,4.66,0,0,1,3.1,2.72q2.49,6.19,5.32,14.08t5.77,16.42q2.92,8.53,5.54,16.58t4.68,14.57a6,6,0,0,1-2.39,1.74,8.41,8.41,0,0,1-3.37.66,6.24,6.24,0,0,1-4-1.09,7.25,7.25,0,0,1-2.06-3.59l-5.33-16.2-1.2-4.68c-1.3-4.13-2.65-8.24-4-12.34s-2.66-7.92-3.86-11.47S1060.91,115,1060,112.63Zm-18,40.56,3.7-8.7h29.14l1.85,8.7Zm18.16-63.5q-1.85,2-4.46,4.62t-5.54,5.28a6.85,6.85,0,0,1-3.59-1.31,3.48,3.48,0,0,1-1.42-2.93,4,4,0,0,1,.87-2.61,24,24,0,0,1,2.4-2.51l5.76-5.65c2.1-1.88,4.13-2.83,6.09-2.83a7,7,0,0,1,3.42.82,12.27,12.27,0,0,1,3,2.45l8.81,9.78a4.59,4.59,0,0,1-1.2,3.32,4.29,4.29,0,0,1-3.26,1.25,4.56,4.56,0,0,1-2.55-.82,15.7,15.7,0,0,1-3-2.77Zm17.07-21.42a11.5,11.5,0,0,1,6.74,2q2.83,2,2.83,6.09a6.19,6.19,0,0,1-2.23,5.27,9.47,9.47,0,0,1-5.17,1.9v2.72a6.94,6.94,0,0,1-1.19.44,6.58,6.58,0,0,1-1.74.21,4.47,4.47,0,0,1-2.39-.49,1.61,1.61,0,0,1-.76-1.46V81.75a3,3,0,0,1,.54-2,2.12,2.12,0,0,1,1.74-.66h.87q3.91,0,3.91-2.71a2.44,2.44,0,0,0-.92-2,4.28,4.28,0,0,0-2.77-.76,7.16,7.16,0,0,0-2.67.49,19.26,19.26,0,0,0-2.44,1.14,3.54,3.54,0,0,1-1.85-3.26c0-1.16.72-2.09,2.17-2.78A12.51,12.51,0,0,1,1077.22,68.27Z"/><path class="cls-2" d="M1140.72,153.08a8.22,8.22,0,0,1-2.34,1.15,10.58,10.58,0,0,1-3.31.48,9.68,9.68,0,0,1-3.75-.65,3.57,3.57,0,0,1-2.12-2.06q-5.22-11.64-9.08-20.93t-6.15-15.5h-.43q-.33,7.83-.65,14.57t-.71,13q-.39,6.26-.71,12.78t-.87,14a8.88,8.88,0,0,1-2.06.54,16,16,0,0,1-2.72.22,6.36,6.36,0,0,1-4.13-1.09,4.14,4.14,0,0,1-1.31-3.37c0-1,.07-3.1.22-6.25s.34-7,.6-11.42.56-9.19.92-14.19.73-9.95,1.09-14.84.72-9.33,1.08-13.32a9.84,9.84,0,0,1,2.78-1.74,11.07,11.07,0,0,1,4.62-.87,10.38,10.38,0,0,1,5.16,1.14,7.4,7.4,0,0,1,3.1,3.64q2.5,5.11,5.11,11.26t5.06,12.34q2.45,6.19,4.73,11.63h.44q4.34-11.09,8.64-21.31t7.34-17.4a8.51,8.51,0,0,1,2.83-1,18.64,18.64,0,0,1,3.48-.33,10.54,10.54,0,0,1,4.89,1,4.29,4.29,0,0,1,2.28,3q.43,2,1,6.42t1.09,10.44q.54,6,1,12.5c.33,4.35.63,8.63.93,12.83s.56,8,.81,11.42.42,6.09.49,8a8.54,8.54,0,0,1-2.45,1.08,11.82,11.82,0,0,1-3,.33,7.24,7.24,0,0,1-3.75-.93,4,4,0,0,1-1.79-3.42q-.55-10.11-1.09-19.68t-.92-17.56q-.39-8-.6-13.21h-.55q-2.06,5.66-5.81,14.46T1140.72,153.08Z"/><path class="cls-2" d="M1256.31,153.08a8.36,8.36,0,0,1-2.34,1.15,10.69,10.69,0,0,1-3.32.48,9.68,9.68,0,0,1-3.75-.65,3.6,3.6,0,0,1-2.12-2.06q-5.22-11.64-9.08-20.93t-6.14-15.5h-.44q-.33,7.83-.65,14.57t-.71,13q-.37,6.26-.7,12.78t-.87,14a9,9,0,0,1-2.07.54,16,16,0,0,1-2.72.22,6.38,6.38,0,0,1-4.13-1.09,4.13,4.13,0,0,1-1.3-3.37c0-1,.07-3.1.21-6.25s.35-7,.6-11.42.56-9.19.92-14.19.73-9.95,1.09-14.84.73-9.33,1.09-13.32a9.62,9.62,0,0,1,2.77-1.74,11.07,11.07,0,0,1,4.62-.87,10.39,10.39,0,0,1,5.17,1.14,7.45,7.45,0,0,1,3.1,3.64q2.49,5.11,5.11,11.26t5,12.34q2.46,6.19,4.73,11.63h.44q4.35-11.09,8.64-21.31t7.34-17.4a8.59,8.59,0,0,1,2.83-1,18.64,18.64,0,0,1,3.48-.33,10.49,10.49,0,0,1,4.89,1,4.3,4.3,0,0,1,2.29,3q.42,2,1,6.42t1.08,10.44q.54,6,1,12.5t.92,12.83q.44,6.31.81,11.42t.49,8a8.48,8.48,0,0,1-2.44,1.08,11.87,11.87,0,0,1-3,.33,7.24,7.24,0,0,1-3.75-.93,4,4,0,0,1-1.8-3.42q-.54-10.11-1.09-19.68t-.92-17.56c-.26-5.33-.45-9.73-.6-13.21h-.54q-2.07,5.66-5.82,14.46T1256.31,153.08Z"/><path class="cls-2" d="M1326.11,147h-9.67q-2.94-4.45-6.26-9.56T1303.6,127q-3.25-5.26-6.08-10.38t-5-9.46a8.9,8.9,0,0,1,2.07-2.56,5.38,5.38,0,0,1,3.7-1.25,6.11,6.11,0,0,1,4,1.2,12.7,12.7,0,0,1,2.88,3.91q1.08,2.07,2.72,4.9t3.47,6.14l3.7,6.58,3.43,6q1.58,2.78,2.55,4.52h.55q3.48-6,6.3-11.26t5.49-10.44q2.67-5.16,5.28-10.6a7.15,7.15,0,0,1,2.23-.76,14.15,14.15,0,0,1,2.33-.22,5.49,5.49,0,0,1,3.76,1.2,4.27,4.27,0,0,1,1.35,3.37,14,14,0,0,1-1.52,4.4q-1.51,3.31-4.35,8.32t-7,11.69Q1331.34,139.06,1326.11,147ZM1312,83.28a16,16,0,0,1,5.54.92q2.51.93,4.73,1.79a10.91,10.91,0,0,0,4,.87,3.63,3.63,0,0,0,3-1.25,9.94,9.94,0,0,0,1.52-2.77h.54a6.94,6.94,0,0,1,4,1.2,4.3,4.3,0,0,1,1.73,3.8,6.49,6.49,0,0,1-2.39,5.33,9.26,9.26,0,0,1-6.09,2,17.48,17.48,0,0,1-5.81-.93c-1.78-.61-3.39-1.23-4.84-1.84a10.13,10.13,0,0,0-3.92-.93,3.49,3.49,0,0,0-3,1.25,10.16,10.16,0,0,0-1.46,3H1309a6.51,6.51,0,0,1-4-1.3,4.47,4.47,0,0,1-1.74-3.81,6.16,6.16,0,0,1,1.25-4,8.23,8.23,0,0,1,3.26-2.44A10.45,10.45,0,0,1,1312,83.28Zm3.91,59h10.77v27.51q-.66.22-2.07.54a12.86,12.86,0,0,1-2.94.33,6.58,6.58,0,0,1-4.4-1.2,4.78,4.78,0,0,1-1.36-3.8Z"/><path class="cls-2" d="M1414.73,140l2.94-6.42a31,31,0,0,1,13,2.39,18,18,0,0,1,7.78,6.42,16.41,16.41,0,0,1,2.61,9.13q0,10-7.29,14.9t-20.88,4.89q-2.82,0-5.87-.16a57.58,57.58,0,0,1-6-.65,49.31,49.31,0,0,1-5.6-1.25c-3.27-.95-4.9-2.79-4.9-5.55V109.05a3.9,3.9,0,0,1,1-2.89,6.7,6.7,0,0,1,2.77-1.57,43.59,43.59,0,0,1,8.15-1.52c3-.29,6.13-.44,9.47-.44q12.6,0,19.62,4.46t7,13.7a15.36,15.36,0,0,1-2.45,8.48,16.44,16.44,0,0,1-7.67,6q-5.22,2.22-13.48,2.23l-.87-5.88q6.63,0,10-2.72a9.33,9.33,0,0,0,3.37-7.72,8.21,8.21,0,0,0-3.91-7.39q-3.91-2.51-11.53-2.5a60.31,60.31,0,0,0-6,.27c-1.78.18-3.39.38-4.84.6v49.26a47.85,47.85,0,0,0,5.65.87q3.27.31,6.42.32,8,0,12.4-2.82c2.89-1.89,4.35-4.75,4.35-8.59a9.82,9.82,0,0,0-3.86-8.21Q1422.23,140,1414.73,140Zm11.42-8.38V140h-28.38v-8.38Z"/><path class="cls-2" d="M1467.9,144.93h-10.76V109.81a5.83,5.83,0,0,1,1.57-4.24,5.7,5.7,0,0,1,4.3-1.63,13,13,0,0,1,2.94.32,7.8,7.8,0,0,1,2,.65Zm-10.76-16.31h10.76v40.56c-.36.14-1,.34-2,.59a11.09,11.09,0,0,1-2.94.39,5.7,5.7,0,0,1-4.3-1.64,5.83,5.83,0,0,1-1.57-4.24ZM1463,113v-9h36.1a14.42,14.42,0,0,1,.71,1.79,7.81,7.81,0,0,1,.38,2.45,5.44,5.44,0,0,1-1,3.48,3.47,3.47,0,0,1-2.88,1.3Zm0,27.73v-8.92h32.73a5.9,5.9,0,0,1,.82,1.74,8.31,8.31,0,0,1,.37,2.5,5.22,5.22,0,0,1-1,3.43,3.66,3.66,0,0,1-3,1.25Zm0,29.47v-8.92h36.53a5.68,5.68,0,0,1,.82,1.68,8.24,8.24,0,0,1,.38,2.56,5.24,5.24,0,0,1-1,3.43,3.67,3.67,0,0,1-3,1.25Zm16.09-81.45c-1.3,1.31-2.81,2.85-4.51,4.62s-3.57,3.54-5.6,5.28a6.72,6.72,0,0,1-3.48-1.31,3.5,3.5,0,0,1-1.41-2.93,4,4,0,0,1,.87-2.61,22.87,22.87,0,0,1,2.39-2.5l5.76-5.66a9.06,9.06,0,0,1,6.09-2.82,6.65,6.65,0,0,1,3.37.81,13.13,13.13,0,0,1,2.94,2.45l8.91,9.78a4.46,4.46,0,0,1-1.25,3.32,4.34,4.34,0,0,1-3.2,1.25,4.74,4.74,0,0,1-2.67-.82,16,16,0,0,1-3-2.77Zm6.31,95.8a6,6,0,0,1-1.74,4.46,6.32,6.32,0,0,1-4.68,1.74,6.17,6.17,0,0,1-4.56-1.74,6,6,0,0,1-1.74-4.46,5.86,5.86,0,0,1,1.79-4.51,6.31,6.31,0,0,1,4.51-1.69,6.42,6.42,0,0,1,4.68,1.69A6,6,0,0,1,1485.41,184.51Z"/><path class="cls-2" d="M1569,155.69v12.94a9.4,9.4,0,0,1-2.89,1.47,12.76,12.76,0,0,1-4.07.6,11.92,11.92,0,0,1-5.11-1,9.45,9.45,0,0,1-3.92-4.19l-18.7-32.19-3.26-6c-1.16-2.14-2.27-4.2-3.32-6.2s-1.9-3.71-2.55-5.16l-10.12,2.39V105.68a6.72,6.72,0,0,1,2.88-1.74,12.38,12.38,0,0,1,4.08-.66,11.74,11.74,0,0,1,5.17,1.09,9.23,9.23,0,0,1,3.86,4.13l18.81,32.19c1,1.88,2.1,3.9,3.26,6s2.23,4.23,3.21,6.26,1.79,3.77,2.45,5.21Zm-53.94-41.21,9.46-.54c.29,2.46.53,5.22.71,8.26s.33,6.13.43,9.25.17,6.09.17,8.91v29.47q-.66.22-2.07.54a12.84,12.84,0,0,1-2.93.33,6.86,6.86,0,0,1-4.35-1.14,4.52,4.52,0,0,1-1.42-3.75Zm53.94,45-9.57.54q-1-8.91-1.14-17.77t-.17-17.13V104c.51-.14,1.22-.3,2.12-.48a14.81,14.81,0,0,1,2.88-.28,7,7,0,0,1,4.46,1.15,4.55,4.55,0,0,1,1.42,3.75Z"/><path class="cls-2" d="M1598.27,139.82h-11V104.15c.51-.14,1.23-.32,2.18-.54a12.84,12.84,0,0,1,2.93-.33,7.06,7.06,0,0,1,4.41,1.15,4.61,4.61,0,0,1,1.46,3.86Zm-11-10.88h11v40.89c-.5.15-1.21.33-2.12.54a12.59,12.59,0,0,1-3,.33,6.8,6.8,0,0,1-4.46-1.2,4.83,4.83,0,0,1-1.42-3.91Zm48.17,12.18h-42.29v-8.91h42.29Zm5-1.3h-10.87V104.15c.44-.14,1.12-.32,2.07-.54a12.84,12.84,0,0,1,2.93-.33,7,7,0,0,1,4.46,1.15q1.41,1.14,1.41,4Zm-10.87-10.88h10.87v40.89c-.5.15-1.21.33-2.12.54a12.1,12.1,0,0,1-2.88.33,6.83,6.83,0,0,1-4.46-1.2,4.85,4.85,0,0,1-1.41-3.91Z"/><path class="cls-2" d="M1719.62,169a10.46,10.46,0,0,1-2.61,1.14,12.93,12.93,0,0,1-4,.6,12.76,12.76,0,0,1-4.57-.76,4.47,4.47,0,0,1-2.61-2.18q-1.74-3.25-4-8.8t-4.89-12.4q-2.61-6.85-5.17-14.08T1687,118.4q-2.18-6.86-3.8-12.29a9,9,0,0,1,2.5-1.85,7.46,7.46,0,0,1,3.58-.87,5.44,5.44,0,0,1,3.7,1.14,7.75,7.75,0,0,1,2.07,3.54l8.64,26.15q4.18,12.66,9.08,25.61h.54q2.84-7.94,6-17.18t6.14-19q3-9.8,5.38-19.14a8.57,8.57,0,0,1,2.18-.82,11.76,11.76,0,0,1,2.61-.27,6.36,6.36,0,0,1,3.91,1.14,4.16,4.16,0,0,1,1.52,3.54,29.78,29.78,0,0,1-1.19,6.25q-1.2,4.52-3.16,10.55t-4.35,12.61q-2.38,6.59-4.83,12.89t-4.46,11.2A72.79,72.79,0,0,1,1719.62,169Z"/><path class="cls-2" d="M1764.74,139.71h-10.87V104.15c.44-.14,1.14-.32,2.12-.54a13.63,13.63,0,0,1,3-.33,6.79,6.79,0,0,1,4.35,1.15,4.69,4.69,0,0,1,1.41,3.86Zm-10.87-10.87h10.87v41a20.54,20.54,0,0,1-2.06.54,12.86,12.86,0,0,1-2.94.33,6.83,6.83,0,0,1-4.46-1.2,4.85,4.85,0,0,1-1.41-3.91Z"/><path class="cls-2" d="M1795.08,144.93h-10.76V109.81a5.83,5.83,0,0,1,1.57-4.24,5.7,5.7,0,0,1,4.3-1.63,12.84,12.84,0,0,1,2.93.32,7.76,7.76,0,0,1,2,.65Zm-10.76-16.31h10.76v40.56c-.36.14-1,.34-2,.59a11,11,0,0,1-2.93.39,5.7,5.7,0,0,1-4.3-1.64,5.83,5.83,0,0,1-1.57-4.24Zm5.87-15.66v-9h36.1a14.42,14.42,0,0,1,.71,1.79,7.81,7.81,0,0,1,.38,2.45,5.44,5.44,0,0,1-1,3.48,3.47,3.47,0,0,1-2.88,1.3Zm0,27.73v-8.92h32.73a5.68,5.68,0,0,1,.81,1.74,8,8,0,0,1,.38,2.5,5.22,5.22,0,0,1-1,3.43,3.66,3.66,0,0,1-3,1.25Zm0,29.47v-8.92h36.53a5.68,5.68,0,0,1,.82,1.68,8.24,8.24,0,0,1,.38,2.56,5.29,5.29,0,0,1-1,3.43,3.67,3.67,0,0,1-3,1.25Zm16.09-81.45c-1.3,1.31-2.81,2.85-4.51,4.62s-3.57,3.54-5.6,5.28a6.72,6.72,0,0,1-3.48-1.31,3.5,3.5,0,0,1-1.41-2.93,4,4,0,0,1,.87-2.61,22.87,22.87,0,0,1,2.39-2.5l5.76-5.66a9.06,9.06,0,0,1,6.09-2.82,6.65,6.65,0,0,1,3.37.81A13.13,13.13,0,0,1,1812.7,84l8.91,9.78a4.46,4.46,0,0,1-1.25,3.32,4.34,4.34,0,0,1-3.2,1.25,4.74,4.74,0,0,1-2.67-.82,16,16,0,0,1-3-2.77Zm6.31,95.8a6,6,0,0,1-1.74,4.46,6.32,6.32,0,0,1-4.68,1.74,6.15,6.15,0,0,1-4.56-1.74,6,6,0,0,1-1.74-4.46,5.86,5.86,0,0,1,1.79-4.51,6.31,6.31,0,0,1,4.51-1.69,6.42,6.42,0,0,1,4.68,1.69A6,6,0,0,1,1812.59,184.51Z"/><path class="cls-2" d="M1896.21,155.69v12.94a9.4,9.4,0,0,1-2.89,1.47,12.76,12.76,0,0,1-4.07.6,12,12,0,0,1-5.12-1,9.49,9.49,0,0,1-3.91-4.19l-18.7-32.19q-1.53-2.82-3.26-6c-1.16-2.14-2.27-4.2-3.32-6.2s-1.9-3.71-2.55-5.16l-10.12,2.39V105.68a6.6,6.6,0,0,1,2.88-1.74,12.38,12.38,0,0,1,4.08-.66,11.74,11.74,0,0,1,5.17,1.09,9.23,9.23,0,0,1,3.86,4.13l18.81,32.19c1,1.88,2.1,3.9,3.26,6s2.23,4.23,3.21,6.26,1.79,3.77,2.44,5.21Zm-53.94-41.21,9.46-.54c.29,2.46.53,5.22.71,8.26s.32,6.13.43,9.25.17,6.09.17,8.91v29.47q-.66.22-2.07.54a12.84,12.84,0,0,1-2.93.33,6.86,6.86,0,0,1-4.35-1.14,4.52,4.52,0,0,1-1.42-3.75Zm53.94,45-9.57.54q-1-8.91-1.15-17.77t-.16-17.13V104c.51-.14,1.21-.3,2.12-.48a14.81,14.81,0,0,1,2.88-.28,7,7,0,0,1,4.46,1.15,4.55,4.55,0,0,1,1.42,3.75Z"/></svg>