<?xml version="1.0" encoding="utf-8"?>
<!-- Generator: Adobe Illustrator 25.3.0, SVG Export Plug-In . SVG Version: 6.00 Build 0)  -->
<svg version="1.1" id="Layer_1" xmlns="http://www.w3.org/2000/svg" xmlns:xlink="http://www.w3.org/1999/xlink" x="0px" y="0px"
	 viewBox="0 0 216.02 79.02" enable-background="new 0 0 216.02 79.02" xml:space="preserve">
<g>
	<g>
		
			<radialGradient id="SVGID_1_" cx="55.8597" cy="-9.0059" r="46.771" gradientTransform="matrix(1.6896 0 0 1.6896 -23.571 18.4749)" gradientUnits="userSpaceOnUse">
			<stop  offset="0" style="stop-color:#6DCEF5"/>
			<stop  offset="1" style="stop-color:#0056A2"/>
		</radialGradient>
		<path fill="url(#SVGID_1_)" d="M39.34,47.29c-0.25,2.91-0.58,5.74-0.98,9.14h2.17c-0.41-3.4-0.73-6.23-0.98-9.14H39.34z
			 M37.46,62.1c-0.61,3.23-1.38,5.69-2.2,8.19h8.36c-0.82-2.5-1.59-4.97-2.2-8.19H37.46z M70.9,3.24
			C63.52-2.9,55.17,2.87,48.92,4.25c-0.54,0.12-1.09,0.22-1.64,0.32c-0.03,0.01-0.06,0.02-0.09,0.03c-4.12,1.02,0.64,3.19,0.64,3.19
			c3.77,1.58-1.32,0.88-1.32,0.88C40.59,7.95,35.09,6.3,31.65,5.1l0,0l-0.09-0.03c-0.84-0.3-1.56-0.56-2.12-0.78L26.19,3.1l0,0
			C20.57,1.11,13.95-1.73,7.98,3.24C-6.01,14.89,2.06,33.28,8.63,39.27c3.67,3.34,3.5,13.6,5.9,23.35
			c0.95,3.87,2.02,7.66,3.33,10.74l0,0c4.85,12.07,10.22,0,10.22,0l1.09-2.54c1.22-2.93,2.37-5.73,3.29-9.05
			c-1.16-0.16-2.11-1.26-2.11-2.6v-0.11c0-1.45,1.15-2.62,2.45-2.62h0.88c0.03-0.19,0.06-0.38,0.08-0.57l0-0.04l0.15-1.03
			c0.44-2.82,0.79-5.2,1.11-7.57c-1.03-0.28-1.85-1.31-1.85-2.55v-0.11c0-1.45,1.15-2.62,2.45-2.62h0.05
			c0.01-0.12,0.02-0.24,0.03-0.36l0.05-0.61c0.23-2.62,0.4-4.28,0.54-5.61c0.21-1.97,0.32-3.05,0.38-5.14l0.03-0.62
			c0.01-0.52,0.01-1,0.02-1.41c0-0.15-0.02-0.3-0.02-0.43c-1.25-0.02-2.39-1.31-2.39-2.78v-0.11c0-1.41,1.11-2.47,2.46-2.47h1.21
			v-4.41c0-0.87,0.63-1.58,1.41-1.58c0.02,0,0.04,0.01,0.06,0.01c0.02,0,0.04-0.01,0.06-0.01c0.78,0,1.41,0.7,1.41,1.58v4.41h1.21
			c1.35,0,2.46,1.06,2.46,2.47v0.11c0,1.47-1.14,2.77-2.39,2.78c0,0.13-0.02,0.27-0.02,0.43c0.01,0.41,0.01,0.89,0.02,1.41
			l0.03,0.62c0.06,2.08,0.17,3.17,0.38,5.14c0.14,1.33,0.31,2.99,0.54,5.61l0.05,0.61c0.01,0.12,0.02,0.24,0.03,0.36h0.05
			c1.3,0,2.45,1.18,2.45,2.62v0.11c0,1.24-0.81,2.27-1.85,2.55c0.32,2.37,0.67,4.75,1.11,7.57l0.15,1.03l0,0.04
			c0.02,0.19,0.05,0.38,0.08,0.57h0.88c1.3,0,2.45,1.18,2.45,2.62v0.11c0,1.34-0.95,2.44-2.11,2.6c0.92,3.32,2.07,6.13,3.29,9.05
			l1.09,2.54c0,0,5.36,12.07,10.22,0l0,0c1.31-3.08,2.37-6.87,3.33-10.74c2.4-9.75,2.23-20.01,5.9-23.35
			C76.82,33.28,84.89,14.89,70.9,3.24z"/>
	</g>
	<g>
		<path fill="#EE403D" d="M109.68,29.76l-5.49-8.52v8.52h-2.71V15.88h2.42l5.49,8.5v-8.5h2.71v13.88H109.68z"/>
		<path fill="#EE403D" d="M123.71,29.76v-5.81h-4.69v5.81h-2.71V15.88h2.71v5.67h4.69v-5.67h2.71v13.88H123.71z"/>
		<path fill="#EE403D" d="M138.52,29.76l-0.82-2.46h-4.93l-0.84,2.46h-2.83l5.04-13.88h2.13l5.06,13.88H138.52z M135.29,19.97
			l-1.75,5.04h3.45L135.29,19.97z"/>
		<path fill="#EE403D" d="M157.89,29.76l-3.57-6.32l-1.79,2.15v4.17h-2.71V15.88h2.71v6.04l4.89-6.04h3.29l-4.6,5.51l4.93,8.37
			H157.89z"/>
		<path fill="#EE403D" d="M171.15,29.76v-5.81h-4.69v5.81h-2.71V15.88h2.71v5.67h4.69v-5.67h2.71v13.88H171.15z"/>
		<path fill="#EE403D" d="M187.85,23.68c0,0.31-0.01,0.58-0.02,0.81c-0.02,0.57-0.07,1.06-0.14,1.47c-0.18,0.96-0.59,1.76-1.22,2.4
			c-1.02,1.01-2.26,1.51-3.74,1.51c-1.5,0-2.75-0.5-3.77-1.51c-0.63-0.63-1.03-1.43-1.21-2.4c-0.07-0.41-0.11-0.89-0.13-1.47
			c-0.01-0.23-0.02-0.5-0.02-0.81v-1.73c0-0.32,0.01-0.59,0.02-0.82c0.02-0.57,0.06-1.06,0.13-1.46c0.18-0.97,0.58-1.77,1.21-2.4
			c1.02-1.01,2.27-1.51,3.77-1.51c1.48,0,2.73,0.5,3.74,1.51c0.63,0.63,1.03,1.43,1.22,2.4c0.08,0.41,0.12,0.89,0.14,1.46
			c0.01,0.23,0.02,0.51,0.02,0.82V23.68z M184.99,20.09c-0.09-0.48-0.27-0.87-0.53-1.17c-0.43-0.5-1.01-0.74-1.73-0.74
			c-0.74,0-1.33,0.25-1.76,0.74c-0.27,0.3-0.44,0.69-0.52,1.17c-0.09,0.51-0.13,1.42-0.13,2.73c0,1.31,0.04,2.22,0.13,2.73
			c0.08,0.48,0.26,0.87,0.52,1.17c0.43,0.49,1.02,0.73,1.76,0.73c0.72,0,1.3-0.24,1.73-0.73c0.27-0.3,0.44-0.69,0.53-1.17
			c0.1-0.52,0.14-1.43,0.14-2.73C185.13,21.52,185.09,20.61,184.99,20.09z"/>
		<path fill="#EE403D" d="M199.48,29.76l-0.82-2.46h-4.93l-0.84,2.46h-2.83l5.04-13.88h2.13l5.06,13.88H199.48z M196.25,19.97
			l-1.75,5.04h3.45L196.25,19.97z"/>
	</g>
	<g>
		<path fill="#0056A2" d="M88.11,68.85V36.78h11.18c7.74,0,12.55,3.53,12.55,10.95c0,7.33-5.22,10.63-11.68,10.63h-5.64v10.49H88.11
			z M99.01,53.32c4.22,0,6.37-1.92,6.37-5.59c0-3.44-2.06-5.86-6.6-5.86h-4.26v11.45H99.01z"/>
		<path fill="#0056A2" d="M174.02,68.76c0,0-1.24,0.27-3.34,0.27c-9.67,0-7.06-12.14-13.84-12.14h-3.39v11.96h-6.41V36.78h11.41
			c7.83,0,12.1,2.89,12.1,10.08c0,4.72-3.12,7.24-5.54,8.16c3.3,2.66,3.53,8.75,7.7,8.75h1.33V68.76z M157.8,52.08
			c3.71,0,6.46-1.74,6.46-5.04c0-3.16-2.24-5.18-6.09-5.18h-4.72v10.22H157.8z"/>
		<path fill="#0056A2" d="M178.47,68.85V36.78h6.41v32.07H178.47z"/>
		<path fill="#0056A2" d="M210.9,45.67c0,0-1.88-3.85-7.19-3.85c-3.21,0-5.04,1.56-5.04,3.62c0,7.1,17,2.15,17,14.48
			c0,4.58-3.53,9.21-12,9.21c-10.08,0-13.15-6.64-13.15-6.64l3.85-3.57c0,0,3.16,5.04,9.3,5.04c3.3,0,5.18-1.47,5.18-3.85
			c0-7.7-17.18-1.97-17.18-14.57c0-4.86,4.12-9.03,11.59-9.03c9.8,0,12.05,6.32,12.05,6.32L210.9,45.67z"/>
		<polygon fill="#0056A2" points="139.19,60.79 130.31,36.78 123.67,36.78 111.75,68.85 118.49,68.85 120.17,63.92 122.84,56.02 
			122.79,56.02 124.27,51.78 124.27,51.78 127.01,43.93 132.74,60.79 135.49,68.85 142.17,68.85 		"/>
		<polygon fill="#EE403D" points="142.14,52.11 132.52,52.11 128.83,52.11 126.87,52.11 125.26,56.88 128.83,56.88 134.07,56.88 
			140.53,56.88 		"/>
	</g>
</g>
</svg>
