<svg id="Layer_1" data-name="Layer 1" xmlns="http://www.w3.org/2000/svg" viewBox="0 0 978.49 294.88"><defs><style>.cls-1{fill:#9c7235;}.cls-2{fill:#db7f27;}.cls-3{fill:#fec465;}.cls-4{fill:#e68a4d;}.cls-5{fill:#d0a868;}</style></defs><path class="cls-1" d="M165.86,153c1.33,4.49.54,7.17-2.33,8.05s-5.44,1.25-7.47.44c-2.47-1-4.64-3-6.87-5.28h-.44q-7.56,4-19.53,4.93-21.37,0-28.95-12.85-4.22-8-4.22-12.93,0-18.83,16.19-24.11a31.82,31.82,0,0,1,11.09-2.46h2.11q13.55,0,21,4h.35a104.66,104.66,0,0,0,.8-13.11q0-7.4-1.32-7.39c-1.35-.59-2.88-.24-4.84.09a8.61,8.61,0,0,1-.88,0q-3.16,0-19.27,5l-1.58.18q-8.72,0-13.9-6a25.84,25.84,0,0,1-4.58-12.23q0-3.6,3.08-3.6,5.28.87,17.68,3.6,13.55,2.47,17.86,3.35,10.13.61,15.22,4.57,10.39,7.58,10.39,23.58v8.27q-1.58,27.2.39,33.92m-54.41-15.36q1,7.67,10.29,8.54a19.82,19.82,0,0,0,5.28.62h1.41q11.52,0,15.57-7.74a10.13,10.13,0,0,0,.8-4.32q0-9.5-11.45-12.41a27.16,27.16,0,0,0-6.42-.61c-9,1-13.3,4.84-15.48,10.74a8.76,8.76,0,0,0,0,5.18M186.8,73.15c-2.52,0-4,2-4.31,5.89l.43,4.14q3.53,10,3.53,29.3v1.06a180.08,180.08,0,0,1-1.59,26.13v.17l.18.27-.79,8.27a21.6,21.6,0,0,0,.79,5.72q2.64,7.47,10.21,7.47h1.57a8.79,8.79,0,0,0,3-.61q5.53-1.94,5.54-10a269.9,269.9,0,0,1-2-28.86l-.18-2.38.18-.26-.18-2.2v-1.94a149.44,149.44,0,0,1,1.15-19.35l3.86.26q2.82,0,14.17-1.31h1.85a7.3,7.3,0,0,1,6.69,4.75c1.2,2.89,1.2,13.93,2.37,32.46l-.17,8.62v1.94L232.9,145l.18.1-.18,2.28v3.34q1.66,11.08,8.71,11.09h.53a7.26,7.26,0,0,0,3.43-.88q8.44-5.1,8.44-23.05,0-25.15-2.55-32.56Q242.67,85,218.82,85h-7.56a16,16,0,0,1-6.34-1.4Q193.3,72.88,187.06,72.89ZM298,53.67A28,28,0,0,1,316.74,60a3.79,3.79,0,0,1,1.5,2.92v.17l-1.5,6.45a39.59,39.59,0,0,1,12.33,6q15.12,10.76,15.12,28V105q0,19.43-16,25.61a38.59,38.59,0,0,1-13.72,2.75l-1.68,4c0,.28,1.09.66,3.26,1.12a56,56,0,0,1,12.49,4.37q18.93,11.35,18.92,27.33-.87,25.69-21.29,29.56a60.09,60.09,0,0,1-14.69,2V202l-.18-.25h-.18l-1.05.25q-26.83,0-39.15-17.69a42.12,42.12,0,0,1-4-18.74q0-10.49,13.64-20.79A41.18,41.18,0,0,1,298,138.22c1.64-4.46,1.88-6.7.71-6.7q-13.81-3.42-21.21-12a31.11,31.11,0,0,1-6.95-19.33q0-15.21,13-25,9.26-5.59,17.6-5.59.18-4.81-4.75-8.85a5.59,5.59,0,0,1-2.29-4.38q0-2.67,3.87-2.67M283.66,165.29v1.29q0,15.12,13.82,19.42a36.07,36.07,0,0,0,7.65.78q18.12,0,23.58-11,1.94-6,1-8.51v-1.72q0-7.91-13.82-13.75a27.23,27.23,0,0,0-8.79-1.28q-16.71,0-22.7,10.13a17.84,17.84,0,0,0-.71,4.64m1.85-65.47q0,11,12.85,14.78a39.37,39.37,0,0,0,8.79.86h1.06q15,0,19.88-8.86a15.83,15.83,0,0,0,1.06-5.15q0-10.56-13.55-15.38a22.32,22.32,0,0,0-7.39-1H305.4q-13.56,0-19.19,10.74a18.22,18.22,0,0,0-.7,4m78.36-26.67c-2.52,0-4,2-4.31,5.89l.44,4.14q3.53,10,3.52,29.3v1.06a180.26,180.26,0,0,1-1.58,26.13v.17l.17.27-.79,8.27a22,22,0,0,0,.79,5.72q2.64,7.47,10.21,7.47h1.58a8.74,8.74,0,0,0,3-.61q5.55-1.94,5.55-10a270.35,270.35,0,0,1-2-28.86l-.17-2.38.17-.26-.17-2.2v-1.94a149.53,149.53,0,0,1,1.14-19.35l3.87.26q2.82,0,14.16-1.31h1.85A7.29,7.29,0,0,1,408,99.64c1.21,2.89,1.2,13.93,2.37,32.46l-.17,8.62v1.94L410,145l.18.1-.18,2.28v3.34q1.68,11.08,8.71,11.09h.54a7.26,7.26,0,0,0,3.43-.88q8.44-5.1,8.44-23.05,0-25.15-2.55-32.56Q419.74,85,395.9,85h-7.57a16,16,0,0,1-6.33-1.4q-11.62-10.75-17.86-10.74ZM514.19,153.7q2,6.74-2.33,8.05c-2.88.88-5.45,1.25-7.49.44-2.46-1-4.63-3-6.86-5.28h-.44q-7.56,4.05-19.53,4.93-21.37,0-29-12.85-4.21-8-4.22-12.93,0-18.82,16.19-24.11a31.81,31.81,0,0,1,11.08-2.46h2.11q13.56,0,21,4h.36a108.6,108.6,0,0,0,.79-13.11q0-7.4-1.32-7.39c-1.35-.59-2.89-.24-4.84.09a8.61,8.61,0,0,1-.88,0q-3.17,0-19.27,5l-1.58.18q-8.71,0-13.91-6A25.92,25.92,0,0,1,449.56,80q0-3.6,3.08-3.6,5.28.89,17.69,3.6c9,1.65,14.95,3,17.86,3.35,6.7.87,11.81,1.93,15.22,4.57q10.38,7.57,10.37,23.58v8.27q-1.57,27.19.41,33.92m-54.42-15.36q1,7.66,10.29,8.54a19.77,19.77,0,0,0,5.28.62h1.41q11.52,0,15.57-7.74a10.14,10.14,0,0,0,.79-4.32q0-9.49-11.44-12.41a27.16,27.16,0,0,0-6.42-.61q-13.54,1.5-15.48,10.74c-.59,1.06-.59,2.78,0,5.18m168.22-28c-1.64-14.62-8.75-20.9-29.65-21.37a59.22,59.22,0,0,0-19.51,2.75q-8.08-3.58-24-4.08a63.37,63.37,0,0,0-6.33-3.17q-11.61-9-17-9l-.26.27c-2.53,0-4,2-4.32,5.89l.44,4.14q3.52,8.28,3.52,29.29v1.06a180.41,180.41,0,0,1-1.58,26.14v.17l.17.26-.79,8.28a22,22,0,0,0,.79,5.71c1.77,5,4.87,7.48,9.33,7.48h1.58a8.64,8.64,0,0,0,3-.62c3.69-1.28,5.54-4.63,5.54-10a269.9,269.9,0,0,1-2-28.86l-.18-2.38L547,122l-.18-2.2v-1.93q-.88-14.07,5-17.33a15.89,15.89,0,0,1,12.14-.44q4.23,2,4.14,15.93l-.18,24.63v1.94l-.17,2.37.17.09-.17,2.29v3.34q3.43,11.09,8.71,11.09H577a7.29,7.29,0,0,0,2.94-.65q4.89-.55,8.15-11.06v-2.46a53.86,53.86,0,0,0,.8-9.76c-.22-11.29-.52-20.2-.91-26.78.16-4.77.39-7.56.71-8.41l.62,0a.78.78,0,0,0,.65,0,100.82,100.82,0,0,1,11.15,0q7.4.57,7.62,6.24t.21,26.44l-.26,8.53v1.94a7.44,7.44,0,0,0-.17,2.38c0,.06.15.12.17.18a7.83,7.83,0,0,1-.17,2.19,23.23,23.23,0,0,0,0,3.44c1.18,7.6,5.24,11,8.71,11h.61a8.29,8.29,0,0,0,3.43-.79q8.44-5.19,10.21-21.38c-.59-16.13-2.79-26.73-3.43-32.46M54,115.56v-.19a52.64,52.64,0,0,1,12.7-8.17q18.74-7.64,18.74-20.35v-.51l-.31-3.72q-4.23-12-11.78-12a8.33,8.33,0,0,0-5.65,2.22Q64.58,76.08,54.61,93.2,50.17,101,32.54,119.8H32V52.19l.8-10.27v-.51q0-2.2-2.72-5.13Q21.26,22.47,8.36,22.47,1.61,22.47,0,26.7v.71q10.58,12.9,9.57,24.28v7.66l.3,3.72-.3.21.3,4.63v9.37l.21,3.63-.21.3.21,2.72V95.72l.3,2.92-.3.2.3,5.65c0,11.23.12,20.9.38,29.06h0l0,49.32c-.39,11.94,4,11.29,4,11.29,1.47-1.28,4.83-5.71,7.32-13.78,7.26-19.88,9.5-35.6,9.5-46.67,0-1.28,1.08-3,3.23-5.15.46,0,1.54.84,3.22,2.52Q52.89,149.43,59,165.64c1.41,5.24,8.09,14.12,10.78,15.94q19.64,5.83,26.39,5.84c5.18-.4,7.76-2,7.76-4.39,0-1.49-8-7-11.44-10.51C81.37,161,77.78,153.9,76.87,152.64Z"/><path class="cls-1" d="M23.2,238.49a11.79,11.79,0,0,1,7.8,2.58,8.16,8.16,0,0,1,3.06,6.51,7.31,7.31,0,0,1-1.19,4.16,7,7,0,0,1-3.07,2.58,8.3,8.3,0,0,1,4.26,2.49,6.74,6.74,0,0,1,1.68,4.59,9.33,9.33,0,0,1-2.35,6.8,10.26,10.26,0,0,1-6.46,2.87c-.79.06-1.88.12-3.25.17s-3.06.07-5.07.07l-3.93-.05a3,3,0,0,1-2.2-.86,3.77,3.77,0,0,1-.9-2.54l0-6.84.05-7.94v-2.3c0-.89,0-1.94-.05-3.15s0-2.27,0-3.16v-2.25a3.37,3.37,0,0,1,.71-2.25,3.09,3.09,0,0,1,1.92-1.1,88.12,88.12,0,0,1,9-.29Zm4.45,9.42a3.24,3.24,0,0,0-1.3-2.72A5.8,5.8,0,0,0,23,244.13h-5v8.23l2.45,0,2.6-.07a4.75,4.75,0,0,0,3.32-1.15,4.22,4.22,0,0,0,1.25-3.26Zm-9.57,9.71.1,7.9c.25,0,.83.05,1.73.05H23.7a7.75,7.75,0,0,0,3.9-1.06,3.39,3.39,0,0,0,1.49-3q0-4-5.48-4Zm32.63-16.07a6.62,6.62,0,0,1,.19-1.24,1.64,1.64,0,0,1,.67-.91,4.34,4.34,0,0,1,2.59-.72h6.12c1.34,0,2.63,0,3.88-.05s2.2,0,2.87,0h1.19a2.85,2.85,0,0,1,2.11.72,3.09,3.09,0,0,1,.76,1.91c.07,1.63-.51,2.62-1.72,3-.67.1-4.21.14-10.62.14H57.07v3.31L57,252v.33h1.53c1.34,0,2.6,0,3.78,0l3.3-.07a5.09,5.09,0,0,1,2.73.57,2.59,2.59,0,0,1,.81,2.35c0,1.85-1,2.77-2.87,2.77H57a9.41,9.41,0,0,0,0,1v6.51l5.17,0,4-.07h3c1.73,0,2.59.95,2.59,2.87a2.74,2.74,0,0,1-3,3.11H55.59a8.39,8.39,0,0,1-3.92-.63,3,3,0,0,1-1.2-2.58,6.92,6.92,0,0,1,0-1.58V266c0-.35,0-.86.05-1.53,0-1.34.08-3.16.14-5.46,0-1.14.05-2.24.05-3.3V241.55ZM65,236.76a2.5,2.5,0,0,1-1.58-.67l-2-2c-.54-.55-1-1-1.29-1.34-.74.83-1.36,1.51-1.87,2.05s-.92,1-1.24,1.25a2.39,2.39,0,0,1-1.73.76,2.24,2.24,0,0,1-1.43-.67,1.8,1.8,0,0,1-.72-1.39,2.11,2.11,0,0,1,.62-1.53c.45-.54,1-1.18,1.65-1.91s1.45-1.59,2.37-2.58a3.08,3.08,0,0,1,2.44-1.06,3,3,0,0,1,2.16,1q2.34,2.53,4.16,4.59a2.51,2.51,0,0,1,.62,1.58,2.16,2.16,0,0,1-.67,1.34,2,2,0,0,1-1.44.72Zm-5,43.88a3.38,3.38,0,0,1-2.68-1.15,3.5,3.5,0,0,1,.53-5.07,4.1,4.1,0,0,1,2.54-.86,3.54,3.54,0,0,1,2.68,1,3.6,3.6,0,0,1,1,2.49A3.36,3.36,0,0,1,63,279.73a4.07,4.07,0,0,1-2.78,1ZM92.91,268.2q0,3.35-3,3.35-3.34,0-3.49-2.87v-4.36q0-2.82,0-7V241.6a2.6,2.6,0,0,1,1.29-2.16,5,5,0,0,1,2.73-.76,3.45,3.45,0,0,1,2,.57,9.56,9.56,0,0,1,1.72,1.87L104.87,256l2.54,3.78c0-1.47-.06-2.88-.08-4.24s0-2.67,0-3.94l-.1-9.24a4.24,4.24,0,0,1,.82-2.87,3.47,3.47,0,0,1,2.68-.86c2.1,0,3.16,1.1,3.16,3.3v26.46a2.45,2.45,0,0,1-1.15,2.15,4.79,4.79,0,0,1-2.78.82,3.28,3.28,0,0,1-2-.58,7.15,7.15,0,0,1-1.62-2l-13.5-19.28c-.06,2.07-.06,5.36,0,9.85,0,2.27.06,4.11.08,5.53s0,2.45,0,3.09Zm64.3.33a2.5,2.5,0,0,1-.86,2.2,4.28,4.28,0,0,1-2.63.72,3.81,3.81,0,0,1-2.44-.72,2.28,2.28,0,0,1-.86-2.15V265l0-6.46H137l.05,10.29q0,2.63-3.54,2.63c-2.17,0-3.25-.91-3.25-2.73,0-.63,0-1.59,0-2.87s0-2.88.07-4.83q.1-5.83,0-9l-.19-10.48c0-2,1.17-3,3.49-3a4.12,4.12,0,0,1,2.35.62,2.46,2.46,0,0,1,1,1.87v11.44H148.5l2,0V249.8c0-1,0-2.14,0-3.42s-.05-2.33-.05-3.16v-1.86c.09-1.92,1.26-2.87,3.49-2.87a3.36,3.36,0,0,1,2.39.76,2.88,2.88,0,0,1,.86,2.2c0,.23,0,1.46,0,3.71s0,5.56-.07,9.93Zm35.36-24.16a12.83,12.83,0,0,1-.86-2.87,2.63,2.63,0,0,1,1.24-2.25,4.51,4.51,0,0,1,2.68-.86,2.94,2.94,0,0,1,3,2.06c.71,1.79,1.28,3.36,1.73,4.74l6.41,17c.06-.19.16-.46.29-.79s.27-.73.43-1.17c.35-1,.59-1.57.71-1.82l6.75-18a3,3,0,0,1,3.06-1.91,3.88,3.88,0,0,1,2.39.86,2.58,2.58,0,0,1,1.15,2.15,11.76,11.76,0,0,1-.76,2.73q-.59,1.53-3.74,9.18c-.06.1-.12.22-.19.36s-.12.33-.19.55a8,8,0,0,1-.31.86c-.14.36-.31.79-.5,1.3s-.41,1-.65,1.62-.52,1.2-.83,1.87l-3.78,8.75a4,4,0,0,1-4.12,2.64,3.34,3.34,0,0,1-2.44-.77,7.86,7.86,0,0,1-1.48-2.44l-9.91-23.83Zm43.3,6.84V241.6a2.72,2.72,0,0,1,.95-2.35,3.87,3.87,0,0,1,2.49-.76,3.79,3.79,0,0,1,2.3.71,2.44,2.44,0,0,1,.91,2V260l0,8.42a2.57,2.57,0,0,1-1,2.2,4,4,0,0,1-2.44.72,3.6,3.6,0,0,1-2.44-.82,2.51,2.51,0,0,1-.86-2.29v-17Zm23.78-9.66a5.89,5.89,0,0,1,.19-1.24,1.6,1.6,0,0,1,.67-.91,4.32,4.32,0,0,1,2.58-.72h6.12c1.34,0,2.64,0,3.88-.05s2.2,0,2.87,0h1.2a2.85,2.85,0,0,1,2.1.72,3.1,3.1,0,0,1,.77,1.91c.06,1.63-.51,2.62-1.73,3-.67.1-4.21.14-10.62.14H266v3.31l-.1,4.35v.33h1.53c1.34,0,2.6,0,3.78,0l3.3-.07a5,5,0,0,1,2.73.57,2.57,2.57,0,0,1,.82,2.35c0,1.85-1,2.77-2.88,2.77h-9.28a9.84,9.84,0,0,0,0,1v6.51l5.16,0,4-.07h3c1.72,0,2.58.95,2.58,2.87a2.74,2.74,0,0,1-3,3.11h-13.1a8.41,8.41,0,0,1-3.93-.63,3,3,0,0,1-1.19-2.58,5.94,5.94,0,0,1,0-1.58V266c0-.35,0-.86,0-1.53,0-1.34.08-3.16.15-5.46,0-1.14,0-2.24,0-3.3V241.55Zm14.3-4.79a2.52,2.52,0,0,1-1.58-.67l-2-2c-.54-.55-1-1-1.29-1.34-.73.83-1.36,1.51-1.87,2.05s-.92,1-1.24,1.25a2.37,2.37,0,0,1-1.72.76,2.24,2.24,0,0,1-1.44-.67,1.79,1.79,0,0,1-.71-1.39,2.07,2.07,0,0,1,.62-1.53c.44-.54,1-1.18,1.65-1.91s1.44-1.59,2.37-2.58a3.06,3.06,0,0,1,2.44-1.06,3,3,0,0,1,2.15,1q2.34,2.53,4.16,4.59a2.46,2.46,0,0,1,.62,1.58,2.16,2.16,0,0,1-.67,1.34,1.93,1.93,0,0,1-1.43.72Zm-5,43.88a3.37,3.37,0,0,1-2.68-1.15,3.59,3.59,0,0,1-.82-2.82,3.52,3.52,0,0,1,1.34-2.25,4.1,4.1,0,0,1,2.54-.86,3.52,3.52,0,0,1,2.68,1,3.57,3.57,0,0,1,1,2.49,3.36,3.36,0,0,1-1.06,2.68,4.06,4.06,0,0,1-2.77,1Zm32.91-12.44q0,3.35-3,3.35c-2.24,0-3.4-1-3.5-2.87v-4.36q0-2.82.05-7V241.6a2.6,2.6,0,0,1,1.29-2.16,5,5,0,0,1,2.73-.76,3.41,3.41,0,0,1,2,.57,9.56,9.56,0,0,1,1.72,1.87L313.8,256l2.54,3.78c0-1.47-.06-2.88-.07-4.24s0-2.67,0-3.94l-.09-9.24a4.24,4.24,0,0,1,.81-2.87,3.49,3.49,0,0,1,2.68-.86q3.17,0,3.16,3.3v26.46a2.42,2.42,0,0,1-1.15,2.15,4.76,4.76,0,0,1-2.77.82,3.28,3.28,0,0,1-2-.58,7.33,7.33,0,0,1-1.63-2l-13.49-19.28c-.07,2.07-.07,5.36,0,9.85,0,2.27.05,4.11.07,5.53s0,2.45,0,3.09Zm69.28-29.35,3.16-.08,3.44-.07,2.16,0a2.45,2.45,0,0,1,2.77,2.77q0,3.21-2.82,3.21l-7.18,0v1.91q-.09,4.69.15,21.68a2.89,2.89,0,0,1-.87,2.44,4,4,0,0,1-2.67.81c-2.14,0-3.18-1-3.11-3.11l.09-17.22v-6.51c-.6,0-1.52,0-2.75,0h-4.71c-1.79,0-2.68-1-2.68-3a2.58,2.58,0,0,1,2.82-2.91h1.29l1.44,0c.6,0,1.32,0,2.15,0l6,.14Zm52.1,29.68a2.5,2.5,0,0,1-.86,2.2,4.28,4.28,0,0,1-2.63.72,3.83,3.83,0,0,1-2.44-.72,2.28,2.28,0,0,1-.86-2.15V265l-.05-6.46H403l0,10.29q0,2.63-3.54,2.63c-2.17,0-3.25-.91-3.25-2.73,0-.63,0-1.59,0-2.87s0-2.88.07-4.83q.1-5.83,0-9l-.19-10.48q0-3,3.5-3a4.11,4.11,0,0,1,2.34.62,2.43,2.43,0,0,1,1,1.87v11.44h11.54l2,0V249.8c0-1,0-2.14,0-3.42s-.05-2.33-.05-3.16v-1.86c.09-1.92,1.26-2.87,3.49-2.87a3.36,3.36,0,0,1,2.39.76,2.88,2.88,0,0,1,.87,2.2c0,.23,0,1.46,0,3.71s0,5.56-.07,9.93Zm13.83-.28a8.4,8.4,0,0,1,.81-3q3.06-6.75,4.45-10.33l5.74-14.07a3.24,3.24,0,0,1,1.44-1.67,4.39,4.39,0,0,1,2.25-.58q3.06,0,4,2.39c.12.32.7,1.75,1.72,4.29s2.49,6.22,4.4,11.07a3.53,3.53,0,0,1,.38.82,3.84,3.84,0,0,0,.39.81q1.34,3.3,2.22,5.45c.59,1.44,1.05,2.52,1.36,3.26a5.63,5.63,0,0,1,.53,2,2.46,2.46,0,0,1-1.05,1.91,4.12,4.12,0,0,1-2.59.86,3,3,0,0,1-3.1-2.06l-2.21-5.64c-.31,0-1.09-.05-2.32-.05H445.9l-2.06,5.46A3.09,3.09,0,0,1,441,271.4a4.64,4.64,0,0,1-2.72-.76,2.71,2.71,0,0,1-1.15-2.44ZM456.76,237a2.64,2.64,0,0,1-1.58-.67q-1.19-1.2-2-2c-.54-.55-1-1-1.29-1.34-.73.83-1.35,1.51-1.86,2.05s-.93,1-1.25,1.25a2.37,2.37,0,0,1-1.72.76,2.24,2.24,0,0,1-1.44-.67,1.81,1.81,0,0,1-.71-1.38,2,2,0,0,1,.62-1.53c.44-.55,1-1.18,1.65-1.92s1.44-1.59,2.37-2.58a3.06,3.06,0,0,1,2.44-1,3,3,0,0,1,2.15.95q2.34,2.53,4.16,4.6a2.43,2.43,0,0,1,.62,1.57,2.16,2.16,0,0,1-.67,1.34,1.93,1.93,0,0,1-1.43.72Zm-4.93,9.66q-.52,1.53-4.16,11.91c1.56,0,3,0,4.38,0l3.8-.07q-.24-.57-1.86-5.46c-.55-1.62-1-3-1.37-4s-.63-1.86-.79-2.37Zm14-19.52a6.84,6.84,0,0,1-3.3,5.69,2,2,0,0,1-.57.34c-1,.51-1.81.4-2.35-.34s-.62-1.46-.05-1.91a.72.72,0,0,1,.24-.14.58.58,0,0,0,.24-.15,5.28,5.28,0,0,0,.53-.28,2,2,0,0,0,.57-.89,3.2,3.2,0,0,0,.19-1.08l0-.28a1.51,1.51,0,0,0-.39-.86,1.4,1.4,0,0,0-1.05-.43,2.42,2.42,0,0,0-.38,0l-.43.07-.43.07-.39,0c-1.11,0-1.67-.77-1.67-2.3q0-2,2.49-2.49a5.17,5.17,0,0,1,1.58,0,6.38,6.38,0,0,1,3.73,1.3A4.43,4.43,0,0,1,465.85,227.1Zm22.35,23c-.13.93-.29,2.26-.48,4s-.43,3.9-.72,6.48q-.86,7.71-1,8.47a3,3,0,0,1-3.34,2.63,3.28,3.28,0,0,1-2.44-1,2.59,2.59,0,0,1-.72-2.44q.48-3.06,1.29-8.46c.25-1.82.52-3.66.79-5.51s.53-3.76.79-5.74.47-3.59.64-4.85.3-2.16.36-2.71a2.59,2.59,0,0,1,1.58-1.77,6.34,6.34,0,0,1,2.78-.52q2.38.09,3.44,3.06l6.27,18.42a1,1,0,0,1,.07.24,1.5,1.5,0,0,0,.12.33,1.88,1.88,0,0,1,.12.31,1.14,1.14,0,0,0,.07.22l.34-.91q2.19-5.46,7-18.66l.19-.33c.07-.13.11-.24.15-.32s.06-.15.09-.21.07-.14.12-.22.1-.18.17-.31a2.51,2.51,0,0,1,.43-.57l.48-.48a1.88,1.88,0,0,1,.67-.43,4.17,4.17,0,0,1,.71-.24,16.19,16.19,0,0,1,1.73,0c1.4.16,2.29.59,2.68,1.29a30.7,30.7,0,0,1,.86,4.64q.48,3.6,1.43,11.77c.32,2.75.6,5.11.84,7.11l.6,5a2.49,2.49,0,0,1-.91,2.29,3.85,3.85,0,0,1-2.44.82c-2,0-3.11-.88-3.3-2.63s-.43-4.27-.72-7.35-.64-6.85-1-11.31L501.3,268.1a3.75,3.75,0,0,1-3.87,2.3,3,3,0,0,1-1.63-.53,2.19,2.19,0,0,1-.86-.86c-.06-.16-.15-.35-.26-.57s-.25-.51-.41-.86l-6-17.61Zm71.95,0c-.13.93-.28,2.26-.48,4s-.43,3.9-.71,6.48c-.58,5.14-.91,8-1,8.47a3,3,0,0,1-3.35,2.63,3.3,3.3,0,0,1-2.44-1,2.59,2.59,0,0,1-.72-2.44q.48-3.06,1.3-8.46.38-2.73.79-5.51t.79-5.74c.25-2,.47-3.59.64-4.85s.3-2.16.36-2.71a2.59,2.59,0,0,1,1.58-1.77,6.33,6.33,0,0,1,2.77-.52q2.4.09,3.45,3.06l6.27,18.42a1,1,0,0,1,.07.24.89.89,0,0,0,.12.33,1.88,1.88,0,0,1,.12.31.71.71,0,0,0,.07.22l.33-.91q2.21-5.46,7-18.66l.19-.33c.06-.13.11-.24.14-.32l.1-.21c0-.06.07-.14.12-.22s.1-.18.17-.31a2.51,2.51,0,0,1,.43-.57l.47-.48a2.08,2.08,0,0,1,.67-.43,4.2,4.2,0,0,1,.72-.24,16,16,0,0,1,1.72,0c1.41.16,2.3.59,2.68,1.29a28.26,28.26,0,0,1,.86,4.64q.48,3.6,1.44,11.77c.32,2.75.6,5.11.84,7.11l.6,5a2.49,2.49,0,0,1-.91,2.29,3.86,3.86,0,0,1-2.44.82c-2,0-3.11-.88-3.31-2.63s-.43-4.27-.71-7.35-.64-6.85-1.06-11.31l-6.6,17.84a3.75,3.75,0,0,1-3.87,2.3,3,3,0,0,1-1.63-.53,2.12,2.12,0,0,1-.86-.86c-.07-.16-.15-.35-.26-.57s-.25-.51-.41-.86l-6-17.61Zm50.48,7.47-9.09-13.78a4,4,0,0,1-.77-2,2.92,2.92,0,0,1,1.1-2.25,3.64,3.64,0,0,1,2.44-1,2.84,2.84,0,0,1,2.54,1.49l7.94,12.77q0-.15,7.75-12.63a3.31,3.31,0,0,1,2.87-1.68,3.67,3.67,0,0,1,2.3.87,2.53,2.53,0,0,1,1,2,3.62,3.62,0,0,1-.76,2.15l-9.91,15.07v9.95a2.33,2.33,0,0,1-1,2,4.09,4.09,0,0,1-2.44.72,3.41,3.41,0,0,1-2.44-.86,3,3,0,0,1-.91-2.25v-.74c0-.31,0-.66.05-1.08s0-.77,0-1.08v-6.62Zm.57-22.83c-.16.93-.84,1.39-2.05,1.39a2.11,2.11,0,0,1-1.58-.62,2.55,2.55,0,0,1-.72-1.87,4.57,4.57,0,0,1,4.83-4.54,4.33,4.33,0,0,1,2.39.67c.74.48,1.34.91,1.82,1.29a2.51,2.51,0,0,0,1.44.72c.7,0,1.06-.4,1.1-1.2.16-1,.87-1.53,2.15-1.53a2.18,2.18,0,0,1,1.48.58,1.85,1.85,0,0,1,.63,1.43,5.2,5.2,0,0,1-1.3,3.83,4.58,4.58,0,0,1-3.39,1.29,4.17,4.17,0,0,1-2.3-.67,15.34,15.34,0,0,1-1.77-1.29,2.73,2.73,0,0,0-1.48-.72,1,1,0,0,0-1.15,1.1Z"/><path class="cls-2" d="M863.37,239.71c1.36-1.23,3.27-4.24,2.6-8.77-1.47-10.9.9-9.76,3.71-13.44,2.3-3.31,1.57-5.51-1.19-7.77l2.87-2.15c1.93-1.74,1.58-3.5-.67-6.23-4.2-5.09,1.07-6.65,4.8-9.47,4.77-3.61,4.22-6.69,0-11.27-2.82-3.66-5.94-6.83-8.77-10.5-5.46-6-1.26-11.21-1.1-25.18,10.37-3.24,57.86-16.3,74,15.43,9.15,18,6.48,35.56,23.61,41.28,11.5,3.83,16.94,12.77,14.83,24.07-3.63,19.4-23.27,23.47-23.27,23.47s7.77,45.31-44.86,31.51c0,0-29.31,35.79-74.46-7.91h-.07c2.12-17.1-8.76-25.76-17.82-31.92,5.69-4.5,20.85-2.17,32,.71C856.65,243.46,860.62,242.19,863.37,239.71Z"/><path class="cls-1" d="M766,44.44c14.39,21.89,18.49,50.53,18.77,70.38.44,30.91-2.58,57.89-10.29,56.36-4.81-1,2.07-29-36.42-47.24-25-11.88-63.42-2.23-64.48-35.71,1.6-30.28,46-20.4,46-20.4s-10.64-24.12,6.4-37C740.32,20,757.17,31.07,766,44.44Z"/><path class="cls-3" d="M793.13,264.09c-.71,6.17-5,11.66-10.2,15.31-9,6.37-18.6,4.45-28.9,3.72-5.78-.41-8.8,6.81-13.74,9.19a29,29,0,0,1-19.84,1.49c-20.85-5.72-35-23.24-41.64-47.28-4.79-17.33,1.52-35.77,11.7-46.41,8.71-9.11,22.53-10,34.56-8.51,14.8,1.88,32.08,6,46.27,0,4.89-2.09,8.91-5.76,12.32-12.75,1.62-3.31,6.84-3.7,6.93,1.29.13,7.11-2.34,15.5-3.28,23.47C784.77,225.21,796.6,233.67,793.13,264.09Z"/><path class="cls-4" d="M837.89,102.25c-.46-.22,23.64-57.51,82.67-57.19,27.52.15,55.35,13.29,39.55,48.29,0,0,23.41,8.8,17.39,28.57-4.6,15.13-20.32,17.79-31.72,10.55-27-17.11-51.72-20.85-82.68,1.56a58.06,58.06,0,0,0-9.33-18.1C850,111.13,844.55,105.37,837.89,102.25Z"/><path class="cls-5" d="M827.25,98.08s-7-4.88-24-3.08c0,0-19.8-28.07-18.43-57.6,1-20.93,15.56-28.81,22.57-29.34C827.73,6.54,827.5,24,827.5,24S841.2-3.22,863,.32c19.4,3.15,21.86,25.2,9.25,35.32-7.08,5.68-16.09,10-27.53,23.74C832.21,74.44,827.25,98.08,827.25,98.08Z"/></svg>